<?xml version="1.0" encoding="utf-8"?>
<!-- Generator: Adobe Illustrator 27.5.0, SVG Export Plug-In . SVG Version: 6.00 Build 0)  -->
<svg version="1.1" xmlns="http://www.w3.org/2000/svg" xmlns:xlink="http://www.w3.org/1999/xlink" x="0px" y="0px"
	 viewBox="0 0 1122 1122" style="enable-background:new 0 0 1122 1122;" xml:space="preserve">
<g id="BG">
	<rect style="fill:#FFFFFF;" width="1122" height="1122"/>
</g>
<g id="Objects">
	<g>
		<g>
			<g>
				<g>
					<g>
						<g>
							<path style="fill:#C2C2C2;" d="M450.589,863.572l-0.248,0.432c-2.832,4.986-3.069,7.599-0.258,7.599h125.39
								c2.808,0,2.579-2.613-0.25-7.599l-0.247-0.432H450.589z"/>
						</g>
						<g>
							<path style="fill:#767676;" d="M560.46,843.513h-95.359c-0.633,0-1.31,0.591-1.925,1.678l-12.587,18.381h124.387
								l-12.588-18.381C561.771,844.104,561.091,843.513,560.46,843.513z"/>
						</g>
					</g>
					<g>
						<g>
							<path style="fill:#1A1A1E;" d="M687.556,587.691H339.488c-5.721,0-10.35,4.634-10.35,10.342v213.024h368.768V598.033
								C697.906,592.325,693.271,587.691,687.556,587.691z M681.492,790.767L681.492,790.767v1.891c0,1.873-1.612,3.402-3.592,3.402
								H347.233c-1.98,0-3.592-1.529-3.592-3.402v-1.891V608.521v-2.43c0-1.613,1.219-2.91,2.808-3.254
								c0.255-0.094,0.516-0.154,0.784-0.154h330.667c0.268,0,0.529,0.06,0.781,0.154c1.594,0.344,2.811,1.641,2.811,3.254v2.389
								c0,0.016,0,0.026,0,0.042V790.767z"/>
						</g>
						<g>
							<path style="fill:#C2C2C2;" d="M329.138,834.698c0,5.71,4.629,10.344,10.35,10.344h348.068c5.715,0,10.35-4.634,10.35-10.344
								v-23.641H329.138V834.698z"/>
						</g>
						<g>
							<path style="fill:#FFFFFF;" d="M681.492,606.09c0-1.613-1.216-2.91-2.811-3.254c-0.253-0.094-0.513-0.154-0.781-0.154
								H347.233c-0.268,0-0.529,0.06-0.784,0.154c-1.589,0.344-2.808,1.641-2.808,3.254v2.43v182.246v1.891
								c0,1.873,1.612,3.402,3.592,3.402h330.667c1.98,0,3.592-1.529,3.592-3.402v-1.891l0,0V608.521c0-0.016,0-0.026,0-0.042
								V606.09z"/>
						</g>
					</g>
				</g>
			</g>
			<g>
				<g>
					<path style="fill:#C2C2C2;" d="M476.047,703.2h-64.325v-45.551c2.662-1.211,4.528-3.881,4.528-7c0-4.252-3.449-7.7-7.698-7.7
						c-4.254,0-7.706,3.449-7.706,7.7c0,3.459,2.298,6.351,5.439,7.323v47.945c0,0.716,0.289,1.415,0.792,1.922
						c0.508,0.505,1.209,0.797,1.925,0.797h64.325v86.067h5.437v-88.787c0-0.716-0.289-1.414-0.795-1.922
						C477.459,703.489,476.761,703.2,476.047,703.2z"/>
				</g>
				<g>
					<path style="fill:#767676;" d="M535.955,650.987c0.513-0.516,0.794-1.196,0.794-1.922v-26.112
						c2.907-1.102,4.983-3.892,4.983-7.185c0-4.251-3.452-7.7-7.698-7.7c-4.256,0-7.703,3.449-7.703,7.7
						c0,3.293,2.071,6.083,4.981,7.185v23.393h-37.598c-0.717,0-1.417,0.292-1.917,0.797c-0.511,0.505-0.8,1.206-0.8,1.922v145.638
						h5.434V651.782h37.603C534.759,651.782,535.437,651.498,535.955,650.987z"/>
				</g>
				<g>
					<path style="fill:#767676;" d="M572.646,727.997c0.516-0.513,0.797-1.198,0.797-1.922v-23.849
						c2.904-1.102,4.981-3.892,4.981-7.182c0-4.254-3.447-7.701-7.701-7.701c-4.251,0-7.698,3.447-7.698,7.701
						c0,3.29,2.073,6.08,4.981,7.182v21.129h-35.334c-0.717,0-1.415,0.292-1.922,0.797c-0.505,0.508-0.797,1.206-0.797,1.922v68.629
						h5.436v-65.912h35.334C571.448,728.791,572.133,728.507,572.646,727.997z"/>
				</g>
				<g>
					<path style="fill:#C2C2C2;" d="M584.544,677.829c4.251,0,7.7-3.449,7.7-7.7c0-4.251-3.449-7.7-7.7-7.7
						c-3.376,0-6.213,2.185-7.252,5.207h-62.286c-0.716,0-1.417,0.289-1.922,0.797c-0.503,0.508-0.797,1.206-0.797,1.92v124.35
						h5.439V673.073h59.707C578.589,675.863,581.334,677.829,584.544,677.829z"/>
				</g>
				<g>
					<path style="fill:#C2C2C2;" d="M639.582,733.097c-3.46,0-6.351,2.298-7.325,5.434h-76.936c-0.714,0-1.412,0.289-1.92,0.797
						c-0.508,0.503-0.797,1.204-0.797,1.92v53.455h5.439v-50.738h74.534c1.211,2.667,3.884,4.533,7.005,4.533
						c4.251,0,7.698-3.449,7.698-7.7C647.28,736.546,643.834,733.097,639.582,733.097z"/>
				</g>
			</g>
		</g>
		<g>
			<g>
				<rect x="671.772" y="786.687" style="fill:#1A1A1E;" width="6.695" height="20.913"/>
			</g>
			<g>
				<path style="fill:#1A1A1E;" d="M734.855,797.139c0-3.876,1.206-7.476,3.254-10.451H723.38v20.913h14.729
					C736.061,804.625,734.855,801.028,734.855,797.139z"/>
			</g>
			<g>
				<path style="fill:#1A1A1E;" d="M742.701,845.253c0,2.021,0.761,1.745,1.704,1.745h17.506c0.94,0,1.704,0.276,1.704-1.745
					v-34.644c-2.944,1.98-6.489,3.144-10.308,3.144c-3.949,0-7.601-1.261-10.605-3.371V845.253z"/>
			</g>
			<g>
				<path style="fill:#1A1A1E;" d="M742.701,751.004v31.052c3.004-2.115,6.656-3.371,10.605-3.371c3.819,0,7.365,1.162,10.308,3.142
					v-30.823c0-2.016-0.763-1.74-1.704-1.74h-17.506C743.462,749.264,742.701,748.988,742.701,751.004z"/>
			</g>
			<g>
				<path style="fill:#767676;" d="M626.862,867.953c0,2.011,1.633,3.649,3.649,3.649h37.611c2.019,0,3.65-1.638,3.65-3.649v-60.353
					v-20.913v-68.394c0-2.019-1.631-3.65-3.65-3.65h-37.611c-2.016,0-3.649,1.631-3.649,3.65V867.953z M647.994,854.741
					c0,4.028-3.256,7.286-7.283,7.286c-4.025,0-7.289-3.259-7.289-7.286c0-4.025,3.264-7.286,7.289-7.286
					C644.737,847.455,647.994,850.716,647.994,854.741z M647.994,836.172c0,4.028-3.256,7.286-7.283,7.286
					c-4.025,0-7.289-3.259-7.289-7.286c0-4.027,3.264-7.284,7.289-7.284C644.737,828.888,647.994,832.145,647.994,836.172z
					 M663.342,722.177c0.998,0,1.813,0.766,1.813,1.704v56.971c0,0.938-0.815,1.704-1.813,1.704h-1.625
					c-1,0-1.816-0.766-1.816-1.704v-56.971c0-0.938,0.815-1.704,1.816-1.704H663.342z M651.031,722.177c1,0,1.81,0.766,1.81,1.704
					v56.971c0,0.938-0.81,1.704-1.81,1.704h-1.626c-1.005,0-1.815-0.766-1.815-1.704v-56.971c0-0.938,0.81-1.704,1.815-1.704
					H651.031z M638.712,722.177c1.006,0,1.818,0.766,1.818,1.704v56.971c0,0.938-0.813,1.704-1.818,1.704h-1.618
					c-1.011,0-1.821-0.766-1.821-1.704v-56.971c0-0.938,0.81-1.704,1.821-1.704H638.712z"/>
			</g>
			<g>
				<path style="fill:#1A1A1E;" d="M633.421,854.741c0,4.028,3.264,7.286,7.289,7.286c4.027,0,7.283-3.259,7.283-7.286
					c0-4.025-3.256-7.286-7.283-7.286C636.685,847.455,633.421,850.716,633.421,854.741z"/>
			</g>
			<g>
				<path style="fill:#FFFFFF;" d="M640.71,843.458c4.027,0,7.283-3.259,7.283-7.286c0-4.027-3.256-7.284-7.283-7.284
					c-4.025,0-7.289,3.256-7.289,7.284C633.421,840.2,636.685,843.458,640.71,843.458z"/>
			</g>
			<g>
				<path style="fill:#FFFFFF;" d="M635.274,780.852c0,0.938,0.81,1.704,1.821,1.704h1.618c1.006,0,1.818-0.766,1.818-1.704v-56.971
					c0-0.938-0.813-1.704-1.818-1.704h-1.618c-1.011,0-1.821,0.766-1.821,1.704V780.852z"/>
			</g>
			<g>
				<path style="fill:#FFFFFF;" d="M647.59,780.852c0,0.938,0.81,1.704,1.815,1.704h1.626c1,0,1.81-0.766,1.81-1.704v-56.971
					c0-0.938-0.81-1.704-1.81-1.704h-1.626c-1.005,0-1.815,0.766-1.815,1.704V780.852z"/>
			</g>
			<g>
				<path style="fill:#FFFFFF;" d="M659.901,780.852c0,0.938,0.815,1.704,1.816,1.704h1.625c0.998,0,1.813-0.766,1.813-1.704
					v-56.971c0-0.938-0.815-1.704-1.813-1.704h-1.625c-1,0-1.816,0.766-1.816,1.704V780.852z"/>
			</g>
			<g>
				<path style="fill:#767676;" d="M678.467,786.687v20.913v60.353c0,2.011,1.631,3.649,3.652,3.649h37.611
					c2.016,0,3.65-1.638,3.65-3.649v-60.353v-20.913v-68.394c0-2.019-1.633-3.65-3.65-3.65h-37.611c-2.021,0-3.652,1.631-3.652,3.65
					V786.687z M699.607,854.741c0,4.028-3.267,7.286-7.289,7.286c-4.024,0-7.289-3.259-7.289-7.286c0-4.025,3.264-7.286,7.289-7.286
					C696.34,847.455,699.607,850.716,699.607,854.741z M699.607,836.172c0,4.028-3.267,7.286-7.289,7.286
					c-4.024,0-7.289-3.259-7.289-7.286c0-4.027,3.264-7.284,7.289-7.284C696.34,828.888,699.607,832.145,699.607,836.172z
					 M714.943,722.177c1.005,0,1.821,0.766,1.821,1.704v56.971c0,0.938-0.816,1.704-1.821,1.704h-1.62
					c-1.003,0-1.819-0.766-1.819-1.704v-56.971c0-0.938,0.815-1.704,1.819-1.704H714.943z M702.636,722.177
					c1.006,0,1.816,0.766,1.816,1.704v56.971c0,0.938-0.81,1.704-1.816,1.704h-1.628c-1.006,0-1.818-0.766-1.818-1.704v-56.971
					c0-0.938,0.813-1.704,1.818-1.704H702.636z M690.32,722.177c0.998,0,1.816,0.766,1.816,1.704v56.971
					c0,0.938-0.818,1.704-1.816,1.704h-1.623c-1.005,0-1.816-0.766-1.816-1.704v-56.971c0-0.938,0.81-1.704,1.816-1.704H690.32z"/>
			</g>
			<g>
				<path style="fill:#1A1A1E;" d="M685.029,854.741c0,4.028,3.264,7.286,7.289,7.286c4.022,0,7.289-3.259,7.289-7.286
					c0-4.025-3.267-7.286-7.289-7.286C688.293,847.455,685.029,850.716,685.029,854.741z"/>
			</g>
			<g>
				<path style="fill:#FFFFFF;" d="M692.318,843.458c4.022,0,7.289-3.259,7.289-7.286c0-4.027-3.267-7.284-7.289-7.284
					c-4.024,0-7.289,3.256-7.289,7.284C685.029,840.2,688.293,843.458,692.318,843.458z"/>
			</g>
			<g>
				<path style="fill:#FFFFFF;" d="M686.881,780.852c0,0.938,0.81,1.704,1.816,1.704h1.623c0.998,0,1.816-0.766,1.816-1.704v-56.971
					c0-0.938-0.818-1.704-1.816-1.704h-1.623c-1.005,0-1.816,0.766-1.816,1.704V780.852z"/>
			</g>
			<g>
				<path style="fill:#FFFFFF;" d="M699.19,780.852c0,0.938,0.813,1.704,1.818,1.704h1.628c1.006,0,1.816-0.766,1.816-1.704v-56.971
					c0-0.938-0.81-1.704-1.816-1.704h-1.628c-1.006,0-1.818,0.766-1.818,1.704V780.852z"/>
			</g>
			<g>
				<path style="fill:#FFFFFF;" d="M711.504,780.852c0,0.938,0.815,1.704,1.819,1.704h1.62c1.005,0,1.821-0.766,1.821-1.704v-56.971
					c0-0.938-0.816-1.704-1.821-1.704h-1.62c-1.003,0-1.819,0.766-1.819,1.704V780.852z"/>
			</g>
			<g>
				<path style="fill:#C2C2C2;" d="M738.109,786.687c-2.048,2.975-3.254,6.575-3.254,10.451c0,3.889,1.206,7.487,3.254,10.462
					c1.242,1.797,2.803,3.373,4.592,4.634c3.004,2.113,6.656,3.368,10.605,3.368c3.819,0,7.365-1.162,10.308-3.144
					c4.918-3.316,8.154-8.938,8.154-15.32c0-6.372-3.235-11.993-8.154-15.312c-2.944-1.98-6.489-3.142-10.308-3.142
					c-3.949,0-7.601,1.256-10.605,3.371C740.909,783.317,739.352,784.885,738.109,786.687z M753.306,780.534
					c9.178,0,16.617,7.437,16.617,16.604c0,9.175-7.44,16.615-16.617,16.615c-9.167,0-16.607-7.44-16.607-16.615
					C736.699,787.972,744.139,780.534,753.306,780.534z"/>
			</g>
			<g>
				<path style="fill:#FFFFFF;" d="M753.306,813.753c9.178,0,16.617-7.44,16.617-16.615c0-9.167-7.44-16.604-16.617-16.604
					c-9.167,0-16.607,7.437-16.607,16.604C736.699,806.313,744.139,813.753,753.306,813.753z M753.306,782.556
					c8.057,0,14.593,6.528,14.593,14.583c0,8.06-6.536,14.591-14.593,14.591c-8.052,0-14.583-6.531-14.583-14.591
					C738.724,789.084,745.255,782.556,753.306,782.556z"/>
			</g>
			<g>
				<path style="fill:#767676;" d="M753.306,811.729c8.057,0,14.593-6.531,14.593-14.591c0-8.055-6.536-14.583-14.593-14.583
					c-8.052,0-14.583,6.528-14.583,14.583C738.724,805.199,745.255,811.729,753.306,811.729z"/>
			</g>
		</g>
	</g>
	<g>
		<g>
			<path style="fill:#69CCC0;" d="M391.411,640.763c0,77.431-62.773,140.202-140.207,140.202
				c-77.431,0-140.204-62.77-140.204-140.202c0-77.437,62.773-140.207,140.204-140.207
				C328.638,500.556,391.411,563.326,391.411,640.763z"/>
		</g>
	</g>
	<g>
		<g>
			<circle style="fill:#4F5055;" cx="788.112" cy="695.885" r="112.036"/>
		</g>
	</g>
	<g>
		<g>
			
				<ellipse transform="matrix(0.7071 -0.7071 0.7071 0.7071 -159.9397 530.8001)" style="fill:#FB9820;" cx="560.763" cy="458.464" rx="208.067" ry="208.067"/>
		</g>
	</g>
	<g>
		<g>
			<g>
				<path style="fill:#1A1A1E;" d="M139.022,414.934c0-0.657-0.538-1.195-1.195-1.195h-23.735c-0.657,0-1.195-0.538-1.195-1.195
					V392.74c0-0.657,0.538-1.195,1.195-1.195h72.376c0.657,0,1.195,0.538,1.195,1.195v19.804c0,0.657-0.538,1.195-1.195,1.195H162.3
					c-0.657,0-1.195,0.538-1.195,1.195v92.281c0,0.657-0.538,1.195-1.195,1.195h-19.692c-0.657,0-1.195-0.538-1.195-1.195V414.934z"
					/>
			</g>
		</g>
		<g>
			<g>
				<path style="fill:#1A1A1E;" d="M257.219,457.798c0,0.657-0.538,1.195-1.195,1.195h-33.405c-0.657,0-1.195,0.538-1.195,1.195
					v25.353c0,0.657,0.538,1.195,1.195,1.195h37.591c0.657,0,1.195,0.538,1.195,1.195v19.283c0,0.657-0.538,1.195-1.195,1.195
					h-59.674c-0.657,0-1.195-0.538-1.195-1.195V392.74c0-0.657,0.538-1.195,1.195-1.195h57.652c0.657,0,1.195,0.538,1.195,1.195
					v19.283c0,0.657-0.538,1.195-1.195,1.195h-35.57c-0.657,0-1.195,0.538-1.195,1.195v21.883c0,0.658,0.538,1.195,1.195,1.195
					h33.405c0.657,0,1.195,0.538,1.195,1.195V457.798z"/>
			</g>
		</g>
		<g>
			<g>
				<path style="fill:#1A1A1E;" d="M347.66,503.937c0.104,0.649-0.313,1.372-0.927,1.608c0,0-12.018,4.6-23.853,4.6
					c-33.631,0-50.951-25.143-50.951-58.435c0-39.878,23.672-62.072,53.116-62.072c11.402,0,22.854,4.742,22.854,4.742
					c0.607,0.252,0.992,0.983,0.855,1.626l-3.974,18.643c-0.137,0.643-0.748,0.967-1.357,0.72c0,0-9.573-3.885-17.367-3.885
					c-17.467,0-31.033,12.66-31.033,38.669c0,23.409,11.548,38.148,31.177,38.148c6.64,0,17.195-3.448,17.195-3.448
					c0.625-0.204,1.222,0.16,1.326,0.809L347.66,503.937z"/>
			</g>
		</g>
		<g>
			<g>
				<path style="fill:#1A1A1E;" d="M383.159,391.544c0.658,0,1.195,0.538,1.195,1.195v42.52c0,0.658,0.538,1.195,1.195,1.195h33.837
					c0.657,0,1.195-0.538,1.195-1.195v-42.52c0-0.657,0.538-1.195,1.195-1.195h19.549c0.657,0,1.195,0.538,1.195,1.195v114.475
					c0,0.657-0.538,1.195-1.195,1.195h-19.549c-0.657,0-1.195-0.538-1.195-1.195v-46.505c0-0.657-0.538-1.195-1.195-1.195h-33.837
					c-0.657,0-1.195,0.538-1.195,1.195v46.505c0,0.657-0.538,1.195-1.195,1.195h-19.692c-0.657,0-1.195-0.538-1.195-1.195V392.74
					c0-0.657,0.538-1.195,1.195-1.195H383.159z"/>
			</g>
		</g>
		<g>
			<g>
				<path style="fill:#1A1A1E;" d="M462.9,508.41c-0.657,0-1.195-0.538-1.195-1.195V392.74c0-0.657,0.538-1.195,1.195-1.195h23.3
					c0.658,0,1.425,0.487,1.705,1.081l19.187,40.664c0.281,0.595,0.722,1.575,0.982,2.179l14.997,37.833
					c0.225,0.618,0.506,1.123,0.625,1.123c0.119,0,0.184-0.537,0.145-1.193l-1.788-46.336c-0.009-0.657-0.016-1.733-0.016-2.391
					V392.74c0-0.657,0.538-1.195,1.195-1.195h17.814c0.657,0,1.195,0.538,1.195,1.195v114.475c0,0.657-0.538,1.195-1.195,1.195
					h-20.7c-0.657,0-1.42-0.488-1.696-1.086l-19.784-42.911c-0.275-0.597-0.717-1.578-0.982-2.18l-15.977-39.059
					c-0.237-0.613-0.528-1.076-0.647-1.029c-0.119,0.047-0.202,0.624-0.184,1.281l0.825,48.59c0.005,0.658,0.01,1.733,0.01,2.391
					v32.808c0,0.657-0.538,1.195-1.195,1.195H462.9z"/>
			</g>
		</g>
		<g>
			<g>
				<path style="fill:#1A1A1E;" d="M650.333,448.761c0,38.325-19.34,61.556-47.773,61.556c-28.866,0-45.754-26.18-45.754-59.472
					c0-35.027,18.621-61.207,47.341-61.207C634.026,389.637,650.333,416.511,650.333,448.761z M580.045,450.324
					c0,22.888,8.948,39.013,23.669,39.013c14.867,0,23.382-16.99,23.382-39.706c0-20.981-8.372-39.013-23.526-39.013
					C588.704,410.618,580.045,427.608,580.045,450.324z"/>
			</g>
		</g>
		<g>
			<g>
				<path style="fill:#1A1A1E;" d="M664.754,392.74c0-0.657,0.538-1.195,1.195-1.195h19.692c0.657,0,1.195,0.538,1.195,1.195v92.281
					c0,0.657,0.538,1.195,1.195,1.195h36.291c0.658,0,1.195,0.538,1.195,1.195v19.804c0,0.657-0.538,1.195-1.195,1.195H665.95
					c-0.657,0-1.195-0.538-1.195-1.195V392.74z"/>
			</g>
		</g>
		<g>
			<g>
				<path style="fill:#1A1A1E;" d="M822.066,448.761c0,38.325-19.34,61.556-47.773,61.556c-28.866,0-45.754-26.18-45.754-59.472
					c0-35.027,18.621-61.207,47.341-61.207C805.758,389.637,822.066,416.511,822.066,448.761z M751.777,450.324
					c0,22.888,8.948,39.013,23.669,39.013c14.867,0,23.383-16.99,23.383-39.706c0-20.981-8.372-39.013-23.526-39.013
					C760.436,410.618,751.777,427.608,751.777,450.324z"/>
			</g>
		</g>
		<g>
			<g>
				<path style="fill:#1A1A1E;" d="M917.748,501.843c0,0.658-0.51,1.366-1.133,1.576c0,0-18.498,6.205-31.343,6.205
					c-17.753,0-30.599-5.377-39.547-15.776c-8.948-10.061-13.856-25.316-13.713-42.483c0.146-38.841,23.672-61.035,55.57-61.035
					c12.556,0,25.879,5.28,25.879,5.28c0.611,0.242,0.997,0.966,0.856,1.608l-4.109,18.817c-0.14,0.642-0.751,0.96-1.357,0.705
					c0,0-10.878-4.565-21.559-4.565c-18.331,0-32.188,12.483-32.188,37.799c0,24.107,12.559,38.325,30.598,38.325
					c5.054,0,9.682-1.391,9.682-1.391c0.63-0.189,1.145-0.882,1.145-1.539v-22.06c0-0.657-0.538-1.195-1.195-1.195h-12.619
					c-0.657,0-1.195-0.538-1.195-1.195v-18.241c0-0.657,0.538-1.195,1.195-1.195h33.837c0.657,0,1.195,0.538,1.195,1.195V501.843z"
					/>
			</g>
		</g>
		<g>
			<g>
				<path style="fill:#1A1A1E;" d="M958.62,508.41c-0.657,0-1.195-0.538-1.195-1.195v-45.463c0-0.657-0.219-1.687-0.486-2.287
					l-29.769-66.828c-0.268-0.6,0.052-1.092,0.709-1.092H950.6c0.658,0,1.375,0.507,1.595,1.127l9.16,25.834
					c0.22,0.62,0.574,1.635,0.787,2.257l6.751,20.104c0.202,0.626,0.432,1.138,0.511,1.138c0.079,0,0.308-0.513,0.507-1.139
					l6.61-20.103c0.214-0.622,0.567-1.638,0.784-2.259l9.027-25.83c0.217-0.621,0.932-1.128,1.59-1.128h22.289
					c0.658,0,0.966,0.487,0.687,1.082l-31.024,65.978c-0.28,0.595-0.509,1.62-0.509,2.277v46.334c0,0.657-0.538,1.195-1.195,1.195
					H958.62z"/>
			</g>
		</g>
	</g>
	<g>
		<g>
			<g>
				<path style="fill:#FFFFFF;" d="M148.64,619.811c0-0.204,0.165-0.392,0.367-0.418c0,0,7.167-0.942,11.666-0.942
					c7.476,0,12.324,1.628,16.12,5.098c4.09,3.683,6.658,9.563,6.658,17.99c0,9.136-2.746,15.44-6.541,19.334
					c-4.147,4.178-10.454,6.161-18.165,6.161c-4.616,0-9.738-0.661-9.738-0.661c-0.202-0.026-0.367-0.214-0.367-0.417V619.811z
					 M157.575,658.026c0,0.203,0.165,0.387,0.368,0.409c0,0,1.62,0.172,2.729,0.172c8.06,0.07,13.317-5.312,13.317-16.714
					c0.057-9.917-4.731-15.159-12.384-15.159c-1.985,0-3.668,0.352-3.668,0.352c-0.199,0.042-0.362,0.242-0.362,0.446V658.026z"/>
			</g>
		</g>
		<g>
			<g>
				<path style="fill:#FFFFFF;" d="M197.854,618.805c0.204,0,0.37,0.167,0.37,0.37v46.994c0,0.203-0.166,0.37-0.37,0.37h-8.195
					c-0.203,0-0.37-0.167-0.37-0.37v-46.994c0-0.203,0.167-0.37,0.37-0.37H197.854z"/>
			</g>
		</g>
		<g>
			<g>
				<path style="fill:#FFFFFF;" d="M238.815,663.973c0,0.203-0.158,0.423-0.351,0.489c0,0-7.592,2.572-12.792,2.572
					c-7.182,0-12.382-2.193-16.003-6.445c-3.621-4.105-5.609-10.339-5.549-17.349c0.057-15.865,9.579-24.93,22.486-24.93
					c5.082,0,10.579,2.197,10.579,2.197c0.189,0.076,0.308,0.3,0.265,0.499l-1.712,7.92c-0.043,0.199-0.231,0.297-0.419,0.217
					c0,0-4.507-1.911-8.832-1.911c-7.416,0-13.025,5.098-13.025,15.44c0,9.844,5.082,15.651,12.384,15.651
					c2.042,0,4.025-0.601,4.025-0.601c0.195-0.059,0.354-0.274,0.354-0.477V648c0-0.203-0.167-0.37-0.37-0.37h-5.335
					c-0.204,0-0.37-0.166-0.37-0.37v-7.687c0-0.204,0.167-0.37,0.37-0.37h13.921c0.204,0,0.37,0.167,0.37,0.37V663.973z"/>
			</g>
		</g>
		<g>
			<g>
				<path style="fill:#FFFFFF;" d="M254.327,618.805c0.204,0,0.37,0.167,0.37,0.37v46.994c0,0.203-0.166,0.37-0.37,0.37h-8.195
					c-0.203,0-0.37-0.167-0.37-0.37v-46.994c0-0.203,0.167-0.37,0.37-0.37H254.327z"/>
			</g>
		</g>
		<g>
			<g>
				<path style="fill:#FFFFFF;" d="M269.999,628.24c0-0.203-0.167-0.37-0.37-0.37h-9.834c-0.203,0-0.37-0.167-0.37-0.37v-8.326
					c0-0.203,0.167-0.37,0.37-0.37h29.517c0.203,0,0.37,0.167,0.37,0.37v8.326c0,0.203-0.167,0.37-0.37,0.37h-10.008
					c-0.203,0-0.37,0.167-0.37,0.37v37.929c0,0.203-0.167,0.37-0.37,0.37h-8.195c-0.203,0-0.37-0.167-0.37-0.37V628.24z"/>
			</g>
		</g>
		<g>
			<g>
				<path style="fill:#FFFFFF;" d="M299.746,654.285c-0.203,0-0.407,0.162-0.453,0.361l-2.638,11.533
					c-0.045,0.198-0.249,0.361-0.452,0.361h-8.49c-0.204,0-0.329-0.161-0.28-0.359l11.852-47.017c0.05-0.197,0.257-0.359,0.46-0.359
					h10.941c0.203,0,0.411,0.161,0.462,0.358l12.026,47.017c0.051,0.197-0.075,0.358-0.278,0.358h-8.841
					c-0.203,0-0.41-0.162-0.459-0.359l-2.859-11.536c-0.049-0.198-0.255-0.359-0.459-0.359H299.746z M308.994,646.212
					c0.204,0,0.331-0.162,0.283-0.36l-2.277-9.406c-0.048-0.198-0.123-0.522-0.167-0.721l-1.835-8.485
					c-0.04-0.199-0.099-0.363-0.132-0.363c-0.032,0-0.088,0.164-0.125,0.364l-1.675,8.481c-0.038,0.2-0.107,0.526-0.153,0.724
					l-2.17,9.405c-0.046,0.198,0.083,0.36,0.287,0.36H308.994z"/>
			</g>
		</g>
		<g>
			<g>
				<path style="fill:#FFFFFF;" d="M328.518,619.175c0-0.203,0.167-0.37,0.37-0.37h8.195c0.203,0,0.37,0.167,0.37,0.37v37.929
					c0,0.203,0.167,0.37,0.37,0.37h14.914c0.203,0,0.37,0.167,0.37,0.37v8.325c0,0.203-0.167,0.37-0.37,0.37h-23.849
					c-0.204,0-0.37-0.167-0.37-0.37V619.175z"/>
			</g>
		</g>
	</g>
	<g>
		<g>
			<path style="fill:#FFFFFF;" d="M743.449,713.825c-1.451,0.875-4.715,1.818-8.964,1.818c-12.073,0-18.291-9.112-18.291-21.179
				c0-14.453,8.498-22.497,19.069-22.497c4.094,0,7.202,1.006,8.602,1.886l-1.607,7.601c-1.606-0.813-3.833-1.568-6.632-1.568
				c-6.269,0-11.14,4.585-11.14,14.015c0,8.482,4.146,13.822,11.192,13.822c2.384,0,5.026-0.625,6.58-1.381L743.449,713.825z"/>
		</g>
		<g>
			<path style="fill:#FFFFFF;" d="M757.082,715.018v-17.349l-11.036-25.008h9.016l3.575,10.18c1.088,3.079,1.813,5.34,2.695,8.107
				h0.103c0.778-2.641,1.606-5.09,2.643-8.107l3.523-10.18h8.861l-11.504,24.695v17.662H757.082z"/>
		</g>
		<g>
			<path style="fill:#FFFFFF;" d="M779.319,673.224c2.072-0.5,6.269-0.88,10.206-0.88c4.819,0,7.773,0.568,10.312,2.391
				c2.436,1.568,4.197,4.46,4.197,8.294c0,3.772-1.813,7.289-5.752,9.05v0.125c3.991,1.318,6.944,4.965,6.944,10.43
				c0,3.835-1.451,6.851-3.628,8.987c-2.539,2.454-6.787,3.835-13.731,3.835c-3.885,0-6.787-0.313-8.548-0.625V673.224z
				 M787.143,689.437h2.591c4.145,0,6.373-2.074,6.373-5.215c0-3.204-2.021-4.903-5.597-4.903c-1.709,0-2.694,0.125-3.367,0.25
				V689.437z M787.143,708.23c0.776,0.125,1.709,0.125,3.057,0.125c3.575,0,6.735-1.636,6.735-6.096c0-4.272-3.16-5.971-7.099-5.971
				h-2.694V708.23z"/>
		</g>
		<g>
			<path style="fill:#FFFFFF;" d="M831.399,697.107h-12.851v10.055h14.354v7.857h-22.281v-42.357h21.555v7.852h-13.628v8.8h12.851
				V697.107z"/>
		</g>
		<g>
			<path style="fill:#FFFFFF;" d="M838.297,673.224c2.539-0.5,6.321-0.88,10.518-0.88c5.181,0,8.809,0.943,11.295,3.334
				c2.074,2.011,3.213,4.965,3.213,8.857c0,5.408-3.161,9.112-6.166,10.436v0.188c2.436,1.193,3.782,4.022,4.663,7.919
				c1.089,4.778,2.177,10.306,2.85,11.941h-8.083c-0.569-1.193-1.399-4.652-2.434-9.868c-0.933-5.278-2.436-6.726-5.649-6.789
				h-2.382v16.656h-7.824V673.224z M846.122,691.448h3.108c3.939,0,6.27-2.386,6.27-6.096c0-3.897-2.176-5.846-5.804-5.908
				c-1.916,0-3.005,0.193-3.574,0.318V691.448z"/>
		</g>
	</g>
</g>
</svg>
